{
  "accessors": [
    {
      "bufferView": 3,
      "componentType": 5126,
      "count": 648,
      "max": [
        0.6398964524269104,
        2.390263080596924,
        0.47038039565086365
      ],
      "min": [
        -0.6398964524269104,
        -0.13966834545135498,
        0.1863671988248825
      ],
      "type": "VEC3"
    },
    {
      "bufferView": 3,
      "byteOffset": 7776,
      "componentType": 5126,
      "count": 648,
      "max": [
        1.0,
        1.0,
        1.0
      ],
      "min": [
        -1.0,
        -1.0,
        -1.0
      ],
      "type": "VEC3"
    },
    {
      "bufferView": 4,
      "componentType": 5126,
      "count": 648,
      "max": [
        1.0,
        0.9972736239433289,
        1.0,
        1.0
      ],
      "min": [
        -1.0,
        -0.9972736239433289,
        -1.0,
        1.0
      ],
      "type": "VEC4"
    },
    {
      "bufferView": 2,
      "componentType": 5126,
      "count": 648,
      "max": [
        0.9105091094970703,
        0.9974297285079956
      ],
      "min": [
        0.0,
        0.0
      ],
      "type": "VEC2"
    },
    {
      "bufferView": 1,
      "componentType": 5125,
      "count": 1530,
      "type": "SCALAR"
    },
    {
      "bufferView": 3,
      "byteOffset": 15552,
      "componentType": 5126,
      "count": 580,
      "max": [
        0.9581527709960938,
        1.4509303569793701,
        0.5460293889045715
      ],
      "min": [
        -0.9581527709960938,
        -1.4509302377700806,
        -0.18601340055465698
      ],
      "type": "VEC3"
    },
    {
      "bufferView": 3,
      "byteOffset": 22512,
      "componentType": 5126,
      "count": 580,
      "max": [
        1.0,
        1.0,
        1.0
      ],
      "min": [
        -1.0,
        -1.0,
        -0.7443713545799255
      ],
      "type": "VEC3"
    },
    {
      "bufferView": 4,
      "byteOffset": 10368,
      "componentType": 5126,
      "count": 580,
      "max": [
        1.0,
        0.9972044825553894,
        1.0,
        1.0
      ],
      "min": [
        -1.0,
        -1.0,
        -1.0,
        1.0
      ],
      "type": "VEC4"
    },
    {
      "bufferView": 2,
      "byteOffset": 5184,
      "componentType": 5126,
      "count": 580,
      "max": [
        0.9999999403953552,
        0.9999999403953552
      ],
      "min": [
        0.0,
        0.0
      ],
      "type": "VEC2"
    },
    {
      "bufferView": 1,
      "byteOffset": 6120,
      "componentType": 5125,
      "count": 1086,
      "type": "SCALAR"
    },
    {
      "bufferView": 5,
      "componentType": 5126,
      "count": 4,
      "max": [
        100.0,
        0.0,
        0.0,
        0.0,
        0.0,
        100.00001525878906,
        0.0,
        0.0,
        0.0,
        0.3176195025444031,
        100.00001525878906,
        0.0,
        0.0,
        0.949028730392456,
        0.0,
        1.0
      ],
      "min": [
        1.0,
        0.0,
        0.0,
        0.0,
        0.0,
        0.9482184648513794,
        -0.3176195025444031,
        0.0,
        0.0,
        0.0,
        0.9482184648513794,
        0.0,
        0.0,
        0.0,
        -0.33496445417404175,
        1.0
      ],
      "type": "MAT4"
    },
    {
      "bufferView": 0,
      "componentType": 5123,
      "count": 648,
      "type": "VEC4"
    },
    {
      "bufferView": 4,
      "byteOffset": 19648,
      "componentType": 5126,
      "count": 648,
      "max": [
        1.0,
        0.0,
        0.0,
        0.0
      ],
      "min": [
        1.0,
        0.0,
        0.0,
        0.0
      ],
      "type": "VEC4"
    },
    {
      "bufferView": 0,
      "byteOffset": 5184,
      "componentType": 5123,
      "count": 580,
      "type": "VEC4"
    },
    {
      "bufferView": 4,
      "byteOffset": 30016,
      "componentType": 5126,
      "count": 580,
      "max": [
        1.0,
        0.0,
        0.0,
        0.0
      ],
      "min": [
        1.0,
        0.0,
        0.0,
        0.0
      ],
      "type": "VEC4"
    },
    {
      "bufferView": 6,
      "componentType": 5126,
      "count": 41,
      "max": [
        0.8333333134651184
      ],
      "min": [
        0.0
      ],
      "type": "SCALAR"
    },
    {
      "bufferView": 7,
      "componentType": 5126,
      "count": 41,
      "max": [
        0.9899618625640869,
        7.235847111602335e-17,
        0.0,
        0.9999671578407288
      ],
      "min": [
        -0.175571009516716,
        -3.572836256716617e-17,
        -2.1915132566566783e-16,
        0.14133478701114655
      ],
      "type": "VEC4"
    }
  ],
  "animations": [
    {
      "channels": [
        {
          "sampler": 0,
          "target": {
            "node": 14,
            "path": "rotation"
          }
        }
      ],
      "name": "Po_Bo|Level_Down",
      "samplers": [
        {
          "input": 15,
          "interpolation": "LINEAR",
          "output": 16
        }
      ]
    }
  ],
  "asset": {
    "extras": {
      "author": "Sam Feng (https://sketchfab.com/fengyuan20000303)",
      "license": "CC-BY-4.0 (http://creativecommons.org/licenses/by/4.0/)",
      "source": "https://sketchfab.com/3d-models/lever-power-switch-374608f75c114b8a9bf41dbc02c51c50",
      "title": "Lever Power Switch"
    },
    "generator": "Sketchfab-12.68.0",
    "version": "2.0"
  },
  "bufferViews": [
    {
      "buffer": 0,
      "byteLength": 9824,
      "byteStride": 8,
      "name": "shortBufferViews",
      "target": 34962
    },
    {
      "buffer": 0,
      "byteLength": 10464,
      "byteOffset": 9824,
      "name": "floatBufferViews",
      "target": 34963
    },
    {
      "buffer": 0,
      "byteLength": 9824,
      "byteOffset": 20288,
      "byteStride": 8,
      "name": "floatBufferViews",
      "target": 34962
    },
    {
      "buffer": 0,
      "byteLength": 29472,
      "byteOffset": 30112,
      "byteStride": 12,
      "name": "floatBufferViews",
      "target": 34962
    },
    {
      "buffer": 0,
      "byteLength": 39296,
      "byteOffset": 59584,
      "byteStride": 16,
      "name": "floatBufferViews",
      "target": 34962
    },
    {
      "buffer": 0,
      "byteLength": 256,
      "byteOffset": 98880,
      "name": "floatBufferViews"
    },
    {
      "buffer": 0,
      "byteLength": 164,
      "byteOffset": 99136,
      "name": "floatBufferViews"
    },
    {
      "buffer": 0,
      "byteLength": 656,
      "byteOffset": 99300,
      "byteStride": 16,
      "name": "floatBufferViews"
    }
  ],
  "buffers": [
    {
      "byteLength": 99956,
      "uri": "scene.bin"
    }
  ],
  "images": [
    {
      "uri": "textures/Scene_-_Root_baseColor.png"
    },
    {
      "uri": "textures/Scene_-_Root_metallicRoughness.png"
    },
    {
      "uri": "textures/Scene_-_Root_normal.png"
    }
  ],
  "materials": [
    {
      "doubleSided": true,
      "name": "Scene_-_Root",
      "normalTexture": {
        "index": 2
      },
      "pbrMetallicRoughness": {
        "baseColorTexture": {
          "index": 0
        },
        "metallicRoughnessTexture": {
          "index": 1
        },
        "roughnessFactor": 0.6218877113620196
      }
    }
  ],
  "meshes": [
    {
      "name": "Handle__0",
      "primitives": [
        {
          "attributes": {
            "JOINTS_0": 11,
            "NORMAL": 1,
            "POSITION": 0,
            "TANGENT": 2,
            "TEXCOORD_0": 3,
            "WEIGHTS_0": 12
          },
          "indices": 4,
          "material": 0,
          "mode": 4
        }
      ]
    },
    {
      "name": "Panel__0",
      "primitives": [
        {
          "attributes": {
            "JOINTS_0": 13,
            "NORMAL": 6,
            "POSITION": 5,
            "TANGENT": 7,
            "TEXCOORD_0": 8,
            "WEIGHTS_0": 14
          },
          "indices": 9,
          "material": 0,
          "mode": 4
        }
      ]
    }
  ],
  "nodes": [
    {
      "children": [
        1
      ],
      "matrix": [
        1.0,
        0.0,
        0.0,
        0.0,
        0.0,
        2.220446049250313e-16,
        -1.0,
        0.0,
        0.0,
        1.0,
        2.220446049250313e-16,
        0.0,
        0.0,
        0.0,
        0.0,
        1.0
      ],
      "name": "Sketchfab_model"
    },
    {
      "children": [
        2
      ],
      "matrix": [
        1.0,
        0.0,
        0.0,
        0.0,
        0.0,
        0.0,
        1.0,
        0.0,
        0.0,
        -1.0,
        0.0,
        0.0,
        0.0,
        0.0,
        0.0,
        1.0
      ],
      "name": "b1abb960e76f483eac421c957a5dc9f4.fbx"
    },
    {
      "children": [
        3
      ],
      "name": "Object_2"
    },
    {
      "children": [
        4,
        5,
        6
      ],
      "name": "RootNode"
    },
    {
      "name": "Handle",
      "rotation": [
        -0.7071068286895752,
        0.0,
        0.0,
        0.7071067094802856
      ],
      "scale": [
        100.0,
        100.0,
        100.0
      ],
      "translation": [
        0.0,
        142.318359375,
        32.96440887451172
      ]
    },
    {
      "name": "Panel",
      "rotation": [
        -0.5000000596046448,
        0.49999991059303284,
        0.5,
        0.5
      ],
      "scale": [
        100.0,
        100.0,
        100.0
      ]
    },
    {
      "children": [
        7
      ],
      "name": "Po_Bo",
      "rotation": [
        -0.7071068286895752,
        0.0,
        0.0,
        0.7071067094802856
      ],
      "scale": [
        100.0,
        100.0,
        100.0
      ],
      "translation": [
        0.0,
        -100.08546447753906,
        0.0
      ]
    },
    {
      "children": [
        8,
        10,
        12,
        9,
        11
      ],
      "name": "Object_7"
    },
    {
      "children": [
        13
      ],
      "name": "_rootJoint"
    },
    {
      "matrix": [
        100.0,
        0.0,
        0.0,
        0.0,
        0.0,
        2.334545331415563e-06,
        -100.00001195627975,
        0.0,
        0.0,
        100.00001176696333,
        2.3345453269958856e-06,
        0.0,
        0.0,
        142.3183930027226,
        32.96441835851874,
        1.0
      ],
      "name": "Object_9"
    },
    {
      "mesh": 0,
      "name": "Object_10",
      "skin": 0
    },
    {
      "matrix": [
        4.715664651386199e-06,
        0.0,
        -100.00001195627976,
        0.0,
        -99.99999999999999,
        5.053215498074308e-14,
        -4.715664087568207e-06,
        0.0,
        5.053216092684313e-14,
        100.00001176696335,
        2.3829269654993155e-21,
        0.0,
        0.0,
        6.188344741531182e-06,
        -1.384375423185702e-06,
        1.0
      ],
      "name": "Object_11"
    },
    {
      "mesh": 1,
      "name": "Object_12",
      "skin": 0
    },
    {
      "children": [
        14
      ],
      "name": "Bone_00",
      "rotation": [
        0.8116710782051086,
        0.0,
        0.0,
        0.5841149687767029
      ],
      "scale": [
        1.0,
        0.9999999403953552,
        0.9999999403953552
      ]
    },
    {
      "children": [
        15
      ],
      "name": "Bone.001_01",
      "rotation": [
        -0.16090638935565948,
        -0.0,
        0.0,
        0.9869696497917175
      ],
      "translation": [
        0.0,
        1.0546095371246338,
        0.0
      ]
    },
    {
      "name": "Bone.001_end_02",
      "translation": [
        0.0,
        2.515810012817383,
        0.0
      ]
    }
  ],
  "samplers": [
    {
      "magFilter": 9729,
      "minFilter": 9987,
      "wrapS": 10497,
      "wrapT": 10497
    }
  ],
  "scene": 0,
  "scenes": [
    {
      "name": "Sketchfab_Scene",
      "nodes": [
        0
      ]
    }
  ],
  "skins": [
    {
      "inverseBindMatrices": 10,
      "joints": [
        8,
        13,
        14,
        15
      ],
      "skeleton": 8
    }
  ],
  "textures": [
    {
      "sampler": 0,
      "source": 0
    },
    {
      "sampler": 0,
      "source": 1
    },
    {
      "sampler": 0,
      "source": 2
    }
  ]
}
